<mxfile host="app.diagrams.net" agent="Mozilla/5.0 (Windows NT 10.0; Win64; x64) AppleWebKit/537.36 (KHTML, like Gecko) Chrome/130.0.0.0 Safari/537.36" version="24.8.4">
  <diagram id="C5RBs43oDa-KdzZeNtuy" name="Page-1">
    <mxGraphModel dx="1285" dy="1932" grid="1" gridSize="10" guides="1" tooltips="1" connect="1" arrows="1" fold="1" page="1" pageScale="1" pageWidth="827" pageHeight="1169" math="0" shadow="0">
      <root>
        <mxCell id="WIyWlLk6GJQsqaUBKTNV-0" />
        <mxCell id="WIyWlLk6GJQsqaUBKTNV-1" parent="WIyWlLk6GJQsqaUBKTNV-0" />
        <mxCell id="jvl8iwTHRKWooMft47pN-112" value="" style="rounded=0;whiteSpace=wrap;html=1;labelBorderColor=none;fontColor=none;noLabel=1;strokeColor=none;" parent="WIyWlLk6GJQsqaUBKTNV-1" vertex="1">
          <mxGeometry x="10" y="-240" width="1390" height="940" as="geometry" />
        </mxCell>
        <mxCell id="jvl8iwTHRKWooMft47pN-94" value="" style="rounded=1;whiteSpace=wrap;html=1;glass=0;strokeWidth=1;shadow=0;fontSize=30;fontStyle=1;verticalAlign=top;arcSize=4;labelBorderColor=none;" parent="WIyWlLk6GJQsqaUBKTNV-1" vertex="1">
          <mxGeometry x="990" y="50" width="360" height="590" as="geometry" />
        </mxCell>
        <mxCell id="AkG67R32tvtSbbvucYFj-30" value="" style="shape=ext;double=1;rounded=1;whiteSpace=wrap;html=1;arcSize=6;" vertex="1" parent="WIyWlLk6GJQsqaUBKTNV-1">
          <mxGeometry x="1010" y="100" width="325" height="280" as="geometry" />
        </mxCell>
        <mxCell id="jvl8iwTHRKWooMft47pN-4" value="&lt;div&gt;&lt;br&gt;&lt;/div&gt;" style="rounded=1;whiteSpace=wrap;html=1;glass=0;strokeWidth=1;shadow=0;fontSize=30;fontStyle=1;verticalAlign=bottom;arcSize=3;" parent="WIyWlLk6GJQsqaUBKTNV-1" vertex="1">
          <mxGeometry x="80" y="50" width="820" height="590" as="geometry" />
        </mxCell>
        <mxCell id="AkG67R32tvtSbbvucYFj-16" value="" style="shape=ext;double=1;rounded=1;whiteSpace=wrap;html=1;arcSize=6;" vertex="1" parent="WIyWlLk6GJQsqaUBKTNV-1">
          <mxGeometry x="490" y="90" width="362.5" height="290" as="geometry" />
        </mxCell>
        <mxCell id="AkG67R32tvtSbbvucYFj-15" value="pdf - dataframe - txt" style="text;whiteSpace=wrap;html=1;fontStyle=1;align=left;fontSize=25;" vertex="1" parent="WIyWlLk6GJQsqaUBKTNV-1">
          <mxGeometry x="502.5" y="90" width="250" height="50" as="geometry" />
        </mxCell>
        <mxCell id="AkG67R32tvtSbbvucYFj-13" value="" style="shape=ext;double=1;rounded=1;whiteSpace=wrap;html=1;arcSize=6;" vertex="1" parent="WIyWlLk6GJQsqaUBKTNV-1">
          <mxGeometry x="107.5" y="90" width="362.5" height="290" as="geometry" />
        </mxCell>
        <mxCell id="AkG67R32tvtSbbvucYFj-2" value="" style="shape=ext;double=1;rounded=1;whiteSpace=wrap;html=1;arcSize=7;" vertex="1" parent="WIyWlLk6GJQsqaUBKTNV-1">
          <mxGeometry x="80" y="-200" width="820" height="220" as="geometry" />
        </mxCell>
        <mxCell id="jvl8iwTHRKWooMft47pN-24" style="edgeStyle=none;curved=1;rounded=0;orthogonalLoop=1;jettySize=auto;html=1;entryX=0.5;entryY=0;entryDx=0;entryDy=0;fontSize=12;startSize=8;endSize=8;" parent="WIyWlLk6GJQsqaUBKTNV-1" source="jvl8iwTHRKWooMft47pN-13" target="jvl8iwTHRKWooMft47pN-19" edge="1">
          <mxGeometry relative="1" as="geometry" />
        </mxCell>
        <mxCell id="jvl8iwTHRKWooMft47pN-13" value="" style="rounded=1;whiteSpace=wrap;html=1;labelBackgroundColor=#1A1A1A;" parent="WIyWlLk6GJQsqaUBKTNV-1" vertex="1">
          <mxGeometry x="120" y="130" width="340" height="110" as="geometry" />
        </mxCell>
        <mxCell id="WIyWlLk6GJQsqaUBKTNV-3" value="&lt;p&gt;&lt;b style=&quot;&quot;&gt;&lt;font style=&quot;font-size: 23px;&quot;&gt;Design Intent&lt;/font&gt;&lt;/b&gt;&lt;/p&gt;" style="rounded=1;whiteSpace=wrap;html=1;fontSize=12;glass=0;strokeWidth=1;shadow=0;" parent="WIyWlLk6GJQsqaUBKTNV-1" vertex="1">
          <mxGeometry x="110" y="-120" width="370" height="100" as="geometry" />
        </mxCell>
        <mxCell id="jvl8iwTHRKWooMft47pN-5" value="&lt;p&gt;&lt;b style=&quot;&quot;&gt;&lt;font style=&quot;font-size: 23px;&quot;&gt;Requirements&lt;/font&gt;&lt;/b&gt;&lt;/p&gt;" style="rounded=1;whiteSpace=wrap;html=1;fontSize=12;glass=0;strokeWidth=1;shadow=0;" parent="WIyWlLk6GJQsqaUBKTNV-1" vertex="1">
          <mxGeometry x="500" y="-120" width="380" height="100" as="geometry" />
        </mxCell>
        <mxCell id="jvl8iwTHRKWooMft47pN-6" style="edgeStyle=none;curved=1;rounded=0;orthogonalLoop=1;jettySize=auto;html=1;exitX=0.25;exitY=1;exitDx=0;exitDy=0;fontSize=12;startSize=8;endSize=8;" parent="WIyWlLk6GJQsqaUBKTNV-1" source="WIyWlLk6GJQsqaUBKTNV-3" target="WIyWlLk6GJQsqaUBKTNV-3" edge="1">
          <mxGeometry relative="1" as="geometry" />
        </mxCell>
        <mxCell id="jvl8iwTHRKWooMft47pN-12" value="&lt;span style=&quot;color: rgb(0, 0, 0); font-family: Helvetica; font-size: 20px; font-style: normal; font-variant-ligatures: normal; font-variant-caps: normal; letter-spacing: normal; orphans: 2; text-align: center; text-indent: 0px; text-transform: none; widows: 2; word-spacing: 0px; -webkit-text-stroke-width: 0px; white-space: normal; background-color: rgb(251, 251, 251); text-decoration-thickness: initial; text-decoration-style: initial; text-decoration-color: initial; float: none; display: inline !important;&quot;&gt;Agent 1&lt;/span&gt;" style="text;whiteSpace=wrap;html=1;fontStyle=1" parent="WIyWlLk6GJQsqaUBKTNV-1" vertex="1">
          <mxGeometry x="137.5" y="130" width="90" height="50" as="geometry" />
        </mxCell>
        <mxCell id="jvl8iwTHRKWooMft47pN-17" style="edgeStyle=none;curved=1;rounded=0;orthogonalLoop=1;jettySize=auto;html=1;exitX=0.5;exitY=0;exitDx=0;exitDy=0;fontSize=12;startSize=8;endSize=8;" parent="WIyWlLk6GJQsqaUBKTNV-1" edge="1">
          <mxGeometry relative="1" as="geometry">
            <mxPoint x="380" y="170" as="sourcePoint" />
            <mxPoint x="380" y="170" as="targetPoint" />
          </mxGeometry>
        </mxCell>
        <mxCell id="AkG67R32tvtSbbvucYFj-11" style="edgeStyle=orthogonalEdgeStyle;rounded=0;orthogonalLoop=1;jettySize=auto;html=1;entryX=0.488;entryY=0.999;entryDx=0;entryDy=0;entryPerimeter=0;exitX=1;exitY=0.5;exitDx=0;exitDy=0;" edge="1" parent="WIyWlLk6GJQsqaUBKTNV-1" source="AkG67R32tvtSbbvucYFj-13" target="AkG67R32tvtSbbvucYFj-2">
          <mxGeometry relative="1" as="geometry">
            <mxPoint x="480" y="190" as="targetPoint" />
            <Array as="points">
              <mxPoint x="480" y="247" />
            </Array>
          </mxGeometry>
        </mxCell>
        <mxCell id="jvl8iwTHRKWooMft47pN-19" value="" style="rounded=1;whiteSpace=wrap;html=1;labelBackgroundColor=#1A1A1A;" parent="WIyWlLk6GJQsqaUBKTNV-1" vertex="1">
          <mxGeometry x="120" y="260" width="340" height="110" as="geometry" />
        </mxCell>
        <mxCell id="jvl8iwTHRKWooMft47pN-20" value="&lt;span style=&quot;color: rgb(0, 0, 0); font-family: Helvetica; font-size: 20px; font-style: normal; font-variant-ligatures: normal; font-variant-caps: normal; letter-spacing: normal; orphans: 2; text-align: center; text-indent: 0px; text-transform: none; widows: 2; word-spacing: 0px; -webkit-text-stroke-width: 0px; white-space: normal; background-color: rgb(251, 251, 251); text-decoration-thickness: initial; text-decoration-style: initial; text-decoration-color: initial; float: none; display: inline !important;&quot;&gt;Agent 2&lt;/span&gt;" style="text;whiteSpace=wrap;html=1;fontStyle=1" parent="WIyWlLk6GJQsqaUBKTNV-1" vertex="1">
          <mxGeometry x="135" y="260" width="90" height="50" as="geometry" />
        </mxCell>
        <mxCell id="jvl8iwTHRKWooMft47pN-23" style="edgeStyle=none;curved=1;rounded=0;orthogonalLoop=1;jettySize=auto;html=1;exitX=1;exitY=0.5;exitDx=0;exitDy=0;entryX=0;entryY=0.5;entryDx=0;entryDy=0;fontSize=12;startSize=8;endSize=8;" parent="WIyWlLk6GJQsqaUBKTNV-1" source="jvl8iwTHRKWooMft47pN-21" target="jvl8iwTHRKWooMft47pN-22" edge="1">
          <mxGeometry relative="1" as="geometry" />
        </mxCell>
        <mxCell id="jvl8iwTHRKWooMft47pN-21" value="&lt;p&gt;&lt;span style=&quot;font-size: 20px;&quot;&gt;Extract&lt;/span&gt;&lt;/p&gt;" style="rounded=1;whiteSpace=wrap;html=1;fontSize=12;glass=0;strokeWidth=1;shadow=0;" parent="WIyWlLk6GJQsqaUBKTNV-1" vertex="1">
          <mxGeometry x="137.5" y="300" width="80" height="40" as="geometry" />
        </mxCell>
        <mxCell id="jvl8iwTHRKWooMft47pN-36" style="edgeStyle=none;curved=1;rounded=0;orthogonalLoop=1;jettySize=auto;html=1;fontSize=12;startSize=8;endSize=8;" parent="WIyWlLk6GJQsqaUBKTNV-1" source="jvl8iwTHRKWooMft47pN-22" target="jvl8iwTHRKWooMft47pN-26" edge="1">
          <mxGeometry relative="1" as="geometry" />
        </mxCell>
        <mxCell id="jvl8iwTHRKWooMft47pN-22" value="&lt;p&gt;&lt;span style=&quot;font-size: 20px;&quot;&gt;Tabulate&lt;/span&gt;&lt;/p&gt;" style="rounded=1;whiteSpace=wrap;html=1;fontSize=12;glass=0;strokeWidth=1;shadow=0;" parent="WIyWlLk6GJQsqaUBKTNV-1" vertex="1">
          <mxGeometry x="240" y="300" width="90" height="40" as="geometry" />
        </mxCell>
        <mxCell id="jvl8iwTHRKWooMft47pN-26" value="&lt;p&gt;&lt;span style=&quot;font-size: 20px;&quot;&gt;Export&lt;/span&gt;&lt;/p&gt;" style="rounded=1;whiteSpace=wrap;html=1;fontSize=12;glass=0;strokeWidth=1;shadow=0;" parent="WIyWlLk6GJQsqaUBKTNV-1" vertex="1">
          <mxGeometry x="355" y="300" width="90" height="40" as="geometry" />
        </mxCell>
        <mxCell id="jvl8iwTHRKWooMft47pN-32" style="edgeStyle=none;curved=1;rounded=0;orthogonalLoop=1;jettySize=auto;html=1;entryX=0;entryY=0.5;entryDx=0;entryDy=0;fontSize=12;startSize=8;endSize=8;" parent="WIyWlLk6GJQsqaUBKTNV-1" source="jvl8iwTHRKWooMft47pN-29" target="jvl8iwTHRKWooMft47pN-30" edge="1">
          <mxGeometry relative="1" as="geometry" />
        </mxCell>
        <mxCell id="jvl8iwTHRKWooMft47pN-29" value="&lt;p&gt;&lt;span style=&quot;font-size: 20px;&quot;&gt;Parse&lt;/span&gt;&lt;/p&gt;" style="rounded=1;whiteSpace=wrap;html=1;fontSize=12;glass=0;strokeWidth=1;shadow=0;" parent="WIyWlLk6GJQsqaUBKTNV-1" vertex="1">
          <mxGeometry x="137.5" y="170" width="80" height="40" as="geometry" />
        </mxCell>
        <mxCell id="jvl8iwTHRKWooMft47pN-33" style="edgeStyle=none;curved=1;rounded=0;orthogonalLoop=1;jettySize=auto;html=1;entryX=0;entryY=0.5;entryDx=0;entryDy=0;fontSize=12;startSize=8;endSize=8;" parent="WIyWlLk6GJQsqaUBKTNV-1" source="jvl8iwTHRKWooMft47pN-30" target="jvl8iwTHRKWooMft47pN-31" edge="1">
          <mxGeometry relative="1" as="geometry" />
        </mxCell>
        <mxCell id="jvl8iwTHRKWooMft47pN-30" value="&lt;p&gt;&lt;span style=&quot;font-size: 20px;&quot;&gt;Clean&lt;/span&gt;&lt;/p&gt;" style="rounded=1;whiteSpace=wrap;html=1;fontSize=12;glass=0;strokeWidth=1;shadow=0;" parent="WIyWlLk6GJQsqaUBKTNV-1" vertex="1">
          <mxGeometry x="240" y="170" width="90" height="40" as="geometry" />
        </mxCell>
        <mxCell id="jvl8iwTHRKWooMft47pN-31" value="&lt;p&gt;&lt;span style=&quot;font-size: 20px;&quot;&gt;Tabulate&lt;/span&gt;&lt;/p&gt;" style="rounded=1;whiteSpace=wrap;html=1;fontSize=12;glass=0;strokeWidth=1;shadow=0;" parent="WIyWlLk6GJQsqaUBKTNV-1" vertex="1">
          <mxGeometry x="355" y="170" width="90" height="40" as="geometry" />
        </mxCell>
        <mxCell id="jvl8iwTHRKWooMft47pN-37" value="&lt;div style=&quot;text-align: center;&quot;&gt;&lt;span style=&quot;background-color: initial; font-size: 20px;&quot;&gt;dataframe&lt;/span&gt;&lt;/div&gt;" style="text;whiteSpace=wrap;html=1;fontStyle=1" parent="WIyWlLk6GJQsqaUBKTNV-1" vertex="1">
          <mxGeometry x="355" y="205" width="90" height="50" as="geometry" />
        </mxCell>
        <mxCell id="jvl8iwTHRKWooMft47pN-38" value="&lt;div style=&quot;&quot;&gt;&lt;span style=&quot;background-color: initial; font-size: 20px;&quot;&gt;window_schedule.xls&lt;/span&gt;&lt;/div&gt;" style="text;whiteSpace=wrap;html=1;fontStyle=1;align=right;" parent="WIyWlLk6GJQsqaUBKTNV-1" vertex="1">
          <mxGeometry x="230" y="338" width="220" height="50" as="geometry" />
        </mxCell>
        <mxCell id="jvl8iwTHRKWooMft47pN-41" style="edgeStyle=none;curved=1;rounded=0;orthogonalLoop=1;jettySize=auto;html=1;entryX=0.5;entryY=0;entryDx=0;entryDy=0;fontSize=12;startSize=8;endSize=8;" parent="WIyWlLk6GJQsqaUBKTNV-1" source="jvl8iwTHRKWooMft47pN-42" target="jvl8iwTHRKWooMft47pN-45" edge="1">
          <mxGeometry relative="1" as="geometry" />
        </mxCell>
        <mxCell id="jvl8iwTHRKWooMft47pN-42" value="" style="rounded=1;whiteSpace=wrap;html=1;labelBackgroundColor=#1A1A1A;" parent="WIyWlLk6GJQsqaUBKTNV-1" vertex="1">
          <mxGeometry x="500" y="130" width="340" height="110" as="geometry" />
        </mxCell>
        <mxCell id="jvl8iwTHRKWooMft47pN-43" value="&lt;span style=&quot;color: rgb(0, 0, 0); font-family: Helvetica; font-size: 20px; font-style: normal; font-variant-ligatures: normal; font-variant-caps: normal; letter-spacing: normal; orphans: 2; text-align: center; text-indent: 0px; text-transform: none; widows: 2; word-spacing: 0px; -webkit-text-stroke-width: 0px; white-space: normal; background-color: rgb(251, 251, 251); text-decoration-thickness: initial; text-decoration-style: initial; text-decoration-color: initial; float: none; display: inline !important;&quot;&gt;Agent 3&lt;/span&gt;" style="text;whiteSpace=wrap;html=1;fontStyle=1" parent="WIyWlLk6GJQsqaUBKTNV-1" vertex="1">
          <mxGeometry x="517.5" y="130" width="90" height="50" as="geometry" />
        </mxCell>
        <mxCell id="jvl8iwTHRKWooMft47pN-44" style="edgeStyle=none;curved=1;rounded=0;orthogonalLoop=1;jettySize=auto;html=1;exitX=0.5;exitY=0;exitDx=0;exitDy=0;fontSize=12;startSize=8;endSize=8;" parent="WIyWlLk6GJQsqaUBKTNV-1" edge="1">
          <mxGeometry relative="1" as="geometry">
            <mxPoint x="760" y="170" as="sourcePoint" />
            <mxPoint x="760" y="170" as="targetPoint" />
          </mxGeometry>
        </mxCell>
        <mxCell id="jvl8iwTHRKWooMft47pN-45" value="" style="rounded=1;whiteSpace=wrap;html=1;labelBackgroundColor=#1A1A1A;" parent="WIyWlLk6GJQsqaUBKTNV-1" vertex="1">
          <mxGeometry x="500" y="260" width="340" height="110" as="geometry" />
        </mxCell>
        <mxCell id="jvl8iwTHRKWooMft47pN-46" value="&lt;span style=&quot;color: rgb(0, 0, 0); font-family: Helvetica; font-size: 20px; font-style: normal; font-variant-ligatures: normal; font-variant-caps: normal; letter-spacing: normal; orphans: 2; text-align: center; text-indent: 0px; text-transform: none; widows: 2; word-spacing: 0px; -webkit-text-stroke-width: 0px; white-space: normal; background-color: rgb(251, 251, 251); text-decoration-thickness: initial; text-decoration-style: initial; text-decoration-color: initial; float: none; display: inline !important;&quot;&gt;Agent 4&lt;/span&gt;" style="text;whiteSpace=wrap;html=1;fontStyle=1" parent="WIyWlLk6GJQsqaUBKTNV-1" vertex="1">
          <mxGeometry x="515" y="260" width="90" height="50" as="geometry" />
        </mxCell>
        <mxCell id="jvl8iwTHRKWooMft47pN-47" style="edgeStyle=none;curved=1;rounded=0;orthogonalLoop=1;jettySize=auto;html=1;exitX=1;exitY=0.5;exitDx=0;exitDy=0;entryX=0;entryY=0.5;entryDx=0;entryDy=0;fontSize=12;startSize=8;endSize=8;" parent="WIyWlLk6GJQsqaUBKTNV-1" source="jvl8iwTHRKWooMft47pN-48" target="jvl8iwTHRKWooMft47pN-50" edge="1">
          <mxGeometry relative="1" as="geometry" />
        </mxCell>
        <mxCell id="jvl8iwTHRKWooMft47pN-48" value="&lt;p&gt;&lt;span style=&quot;font-size: 20px;&quot;&gt;Extract&lt;/span&gt;&lt;/p&gt;" style="rounded=1;whiteSpace=wrap;html=1;fontSize=12;glass=0;strokeWidth=1;shadow=0;" parent="WIyWlLk6GJQsqaUBKTNV-1" vertex="1">
          <mxGeometry x="517.5" y="300" width="80" height="40" as="geometry" />
        </mxCell>
        <mxCell id="jvl8iwTHRKWooMft47pN-49" style="edgeStyle=none;curved=1;rounded=0;orthogonalLoop=1;jettySize=auto;html=1;fontSize=12;startSize=8;endSize=8;" parent="WIyWlLk6GJQsqaUBKTNV-1" source="jvl8iwTHRKWooMft47pN-50" target="jvl8iwTHRKWooMft47pN-51" edge="1">
          <mxGeometry relative="1" as="geometry" />
        </mxCell>
        <mxCell id="jvl8iwTHRKWooMft47pN-50" value="&lt;p&gt;&lt;span style=&quot;font-size: 20px;&quot;&gt;Tabulate&lt;/span&gt;&lt;/p&gt;" style="rounded=1;whiteSpace=wrap;html=1;fontSize=12;glass=0;strokeWidth=1;shadow=0;" parent="WIyWlLk6GJQsqaUBKTNV-1" vertex="1">
          <mxGeometry x="620" y="300" width="90" height="40" as="geometry" />
        </mxCell>
        <mxCell id="jvl8iwTHRKWooMft47pN-51" value="&lt;p&gt;&lt;span style=&quot;font-size: 20px;&quot;&gt;Export&lt;/span&gt;&lt;/p&gt;" style="rounded=1;whiteSpace=wrap;html=1;fontSize=12;glass=0;strokeWidth=1;shadow=0;" parent="WIyWlLk6GJQsqaUBKTNV-1" vertex="1">
          <mxGeometry x="735" y="300" width="90" height="40" as="geometry" />
        </mxCell>
        <mxCell id="jvl8iwTHRKWooMft47pN-52" style="edgeStyle=none;curved=1;rounded=0;orthogonalLoop=1;jettySize=auto;html=1;entryX=0;entryY=0.5;entryDx=0;entryDy=0;fontSize=12;startSize=8;endSize=8;" parent="WIyWlLk6GJQsqaUBKTNV-1" source="jvl8iwTHRKWooMft47pN-53" target="jvl8iwTHRKWooMft47pN-55" edge="1">
          <mxGeometry relative="1" as="geometry" />
        </mxCell>
        <mxCell id="jvl8iwTHRKWooMft47pN-53" value="&lt;p&gt;&lt;span style=&quot;font-size: 20px;&quot;&gt;Parse&lt;/span&gt;&lt;/p&gt;" style="rounded=1;whiteSpace=wrap;html=1;fontSize=12;glass=0;strokeWidth=1;shadow=0;" parent="WIyWlLk6GJQsqaUBKTNV-1" vertex="1">
          <mxGeometry x="517.5" y="170" width="80" height="40" as="geometry" />
        </mxCell>
        <mxCell id="jvl8iwTHRKWooMft47pN-54" style="edgeStyle=none;curved=1;rounded=0;orthogonalLoop=1;jettySize=auto;html=1;entryX=0;entryY=0.5;entryDx=0;entryDy=0;fontSize=12;startSize=8;endSize=8;" parent="WIyWlLk6GJQsqaUBKTNV-1" source="jvl8iwTHRKWooMft47pN-55" target="jvl8iwTHRKWooMft47pN-56" edge="1">
          <mxGeometry relative="1" as="geometry" />
        </mxCell>
        <mxCell id="jvl8iwTHRKWooMft47pN-55" value="&lt;p&gt;&lt;span style=&quot;font-size: 20px;&quot;&gt;Clean&lt;/span&gt;&lt;/p&gt;" style="rounded=1;whiteSpace=wrap;html=1;fontSize=12;glass=0;strokeWidth=1;shadow=0;" parent="WIyWlLk6GJQsqaUBKTNV-1" vertex="1">
          <mxGeometry x="620" y="170" width="90" height="40" as="geometry" />
        </mxCell>
        <mxCell id="jvl8iwTHRKWooMft47pN-56" value="&lt;p&gt;&lt;span style=&quot;font-size: 20px;&quot;&gt;Tabulate&lt;/span&gt;&lt;/p&gt;" style="rounded=1;whiteSpace=wrap;html=1;fontSize=12;glass=0;strokeWidth=1;shadow=0;" parent="WIyWlLk6GJQsqaUBKTNV-1" vertex="1">
          <mxGeometry x="735" y="170" width="90" height="40" as="geometry" />
        </mxCell>
        <mxCell id="jvl8iwTHRKWooMft47pN-58" value="&lt;div style=&quot;text-align: center;&quot;&gt;&lt;span style=&quot;font-size: 20px;&quot;&gt;Requirements.txt&lt;/span&gt;&lt;/div&gt;" style="text;whiteSpace=wrap;html=1;fontStyle=1" parent="WIyWlLk6GJQsqaUBKTNV-1" vertex="1">
          <mxGeometry x="660" y="338" width="206.5" height="50" as="geometry" />
        </mxCell>
        <mxCell id="jvl8iwTHRKWooMft47pN-69" style="edgeStyle=none;curved=1;rounded=0;orthogonalLoop=1;jettySize=auto;html=1;fontSize=12;startSize=8;endSize=8;entryX=0.48;entryY=0.008;entryDx=0;entryDy=0;entryPerimeter=0;" parent="WIyWlLk6GJQsqaUBKTNV-1" source="jvl8iwTHRKWooMft47pN-63" target="jvl8iwTHRKWooMft47pN-64" edge="1">
          <mxGeometry relative="1" as="geometry" />
        </mxCell>
        <mxCell id="jvl8iwTHRKWooMft47pN-63" value="" style="shape=partialRectangle;whiteSpace=wrap;html=1;bottom=1;right=1;left=1;top=0;fillColor=none;routingCenterX=-0.5;" parent="WIyWlLk6GJQsqaUBKTNV-1" vertex="1">
          <mxGeometry x="280" y="380" width="400" height="30" as="geometry" />
        </mxCell>
        <mxCell id="jvl8iwTHRKWooMft47pN-64" value="" style="rounded=1;whiteSpace=wrap;html=1;labelBackgroundColor=#1A1A1A;" parent="WIyWlLk6GJQsqaUBKTNV-1" vertex="1">
          <mxGeometry x="315" y="450" width="345" height="110" as="geometry" />
        </mxCell>
        <mxCell id="jvl8iwTHRKWooMft47pN-71" style="edgeStyle=none;curved=1;rounded=0;orthogonalLoop=1;jettySize=auto;html=1;entryX=0;entryY=0.5;entryDx=0;entryDy=0;fontSize=12;startSize=8;endSize=8;" parent="WIyWlLk6GJQsqaUBKTNV-1" source="jvl8iwTHRKWooMft47pN-66" target="jvl8iwTHRKWooMft47pN-67" edge="1">
          <mxGeometry relative="1" as="geometry" />
        </mxCell>
        <mxCell id="jvl8iwTHRKWooMft47pN-66" value="&lt;p&gt;&lt;span style=&quot;font-size: 20px;&quot;&gt;Compare&lt;/span&gt;&lt;/p&gt;" style="rounded=1;whiteSpace=wrap;html=1;fontSize=12;glass=0;strokeWidth=1;shadow=0;" parent="WIyWlLk6GJQsqaUBKTNV-1" vertex="1">
          <mxGeometry x="328.75" y="490" width="90" height="40" as="geometry" />
        </mxCell>
        <mxCell id="jvl8iwTHRKWooMft47pN-72" style="edgeStyle=none;curved=1;rounded=0;orthogonalLoop=1;jettySize=auto;html=1;entryX=0;entryY=0.5;entryDx=0;entryDy=0;fontSize=12;startSize=8;endSize=8;" parent="WIyWlLk6GJQsqaUBKTNV-1" source="jvl8iwTHRKWooMft47pN-67" target="jvl8iwTHRKWooMft47pN-70" edge="1">
          <mxGeometry relative="1" as="geometry" />
        </mxCell>
        <mxCell id="jvl8iwTHRKWooMft47pN-67" value="&lt;p&gt;&lt;span style=&quot;font-size: 20px;&quot;&gt;Tabulate&lt;/span&gt;&lt;/p&gt;" style="rounded=1;whiteSpace=wrap;html=1;fontSize=12;glass=0;strokeWidth=1;shadow=0;" parent="WIyWlLk6GJQsqaUBKTNV-1" vertex="1">
          <mxGeometry x="440" y="490" width="90" height="40" as="geometry" />
        </mxCell>
        <mxCell id="jvl8iwTHRKWooMft47pN-68" value="&lt;span style=&quot;color: rgb(0, 0, 0); font-family: Helvetica; font-size: 20px; font-style: normal; font-variant-ligatures: normal; font-variant-caps: normal; letter-spacing: normal; orphans: 2; text-align: center; text-indent: 0px; text-transform: none; widows: 2; word-spacing: 0px; -webkit-text-stroke-width: 0px; white-space: normal; background-color: rgb(251, 251, 251); text-decoration-thickness: initial; text-decoration-style: initial; text-decoration-color: initial; float: none; display: inline !important;&quot;&gt;Agent 5&lt;/span&gt;" style="text;whiteSpace=wrap;html=1;fontStyle=1" parent="WIyWlLk6GJQsqaUBKTNV-1" vertex="1">
          <mxGeometry x="327.5" y="450" width="90" height="50" as="geometry" />
        </mxCell>
        <mxCell id="jvl8iwTHRKWooMft47pN-70" value="&lt;p&gt;&lt;span style=&quot;font-size: 20px;&quot;&gt;Export&lt;/span&gt;&lt;/p&gt;" style="rounded=1;whiteSpace=wrap;html=1;fontSize=12;glass=0;strokeWidth=1;shadow=0;" parent="WIyWlLk6GJQsqaUBKTNV-1" vertex="1">
          <mxGeometry x="553.75" y="490" width="90" height="40" as="geometry" />
        </mxCell>
        <mxCell id="jvl8iwTHRKWooMft47pN-73" value="&lt;div style=&quot;text-align: center;&quot;&gt;&lt;span style=&quot;background-color: initial; font-size: 20px;&quot;&gt;check_1.xls&lt;/span&gt;&lt;/div&gt;" style="text;whiteSpace=wrap;html=1;fontStyle=1" parent="WIyWlLk6GJQsqaUBKTNV-1" vertex="1">
          <mxGeometry x="530" y="528" width="150" height="50" as="geometry" />
        </mxCell>
        <mxCell id="jvl8iwTHRKWooMft47pN-75" value="&lt;div style=&quot;font-size: 21px;&quot;&gt;&lt;span style=&quot;font-size: 21px;&quot; id=&quot;docs-internal-guid-1821d3b9-7fff-7af8-b4e6-91dbe0856bd1&quot;&gt;&lt;span style=&quot;font-size: 21px; font-family: &amp;quot;Roboto Mono&amp;quot;, monospace; background-color: transparent; font-variant-numeric: normal; font-variant-east-asian: normal; font-variant-alternates: normal; font-variant-position: normal; vertical-align: baseline; white-space-collapse: preserve;&quot;&gt;gemini-1.5-pro-002&lt;/span&gt;&lt;/span&gt;&lt;/div&gt;" style="text;whiteSpace=wrap;html=1;fontStyle=1;fontColor=#000000;align=center;fontSize=21;" parent="WIyWlLk6GJQsqaUBKTNV-1" vertex="1">
          <mxGeometry x="607.5" y="604" width="320" height="30" as="geometry" />
        </mxCell>
        <mxCell id="jvl8iwTHRKWooMft47pN-77" value="&lt;div style=&quot;font-size: 21px;&quot;&gt;&lt;span style=&quot;font-size: 21px;&quot; id=&quot;docs-internal-guid-1821d3b9-7fff-7af8-b4e6-91dbe0856bd1&quot;&gt;&lt;span style=&quot;font-size: 21px; font-family: &amp;quot;Roboto Mono&amp;quot;, monospace; background-color: transparent; font-variant-numeric: normal; font-variant-east-asian: normal; font-variant-alternates: normal; font-variant-position: normal; vertical-align: baseline; white-space-collapse: preserve;&quot;&gt;gpt-4o-mini&lt;/span&gt;&lt;/span&gt;&lt;/div&gt;" style="text;whiteSpace=wrap;html=1;fontStyle=1;fontColor=#000000;align=center;fontSize=21;" parent="WIyWlLk6GJQsqaUBKTNV-1" vertex="1">
          <mxGeometry x="1200" y="604" width="140" height="30" as="geometry" />
        </mxCell>
        <mxCell id="jvl8iwTHRKWooMft47pN-78" value="" style="rounded=1;whiteSpace=wrap;html=1;labelBackgroundColor=#1A1A1A;" parent="WIyWlLk6GJQsqaUBKTNV-1" vertex="1">
          <mxGeometry x="1020" y="446" width="310" height="110" as="geometry" />
        </mxCell>
        <mxCell id="jvl8iwTHRKWooMft47pN-81" style="edgeStyle=none;curved=1;rounded=0;orthogonalLoop=1;jettySize=auto;html=1;entryX=0;entryY=0.5;entryDx=0;entryDy=0;fontSize=12;startSize=8;endSize=8;" parent="WIyWlLk6GJQsqaUBKTNV-1" source="jvl8iwTHRKWooMft47pN-82" target="jvl8iwTHRKWooMft47pN-84" edge="1">
          <mxGeometry relative="1" as="geometry" />
        </mxCell>
        <mxCell id="jvl8iwTHRKWooMft47pN-82" value="&lt;p&gt;&lt;span style=&quot;font-size: 20px;&quot;&gt;Analyse&lt;/span&gt;&lt;/p&gt;" style="rounded=1;whiteSpace=wrap;html=1;fontSize=12;glass=0;strokeWidth=1;shadow=0;" parent="WIyWlLk6GJQsqaUBKTNV-1" vertex="1">
          <mxGeometry x="1048.12" y="486" width="103.13" height="40" as="geometry" />
        </mxCell>
        <mxCell id="jvl8iwTHRKWooMft47pN-83" value="&lt;span style=&quot;color: rgb(0, 0, 0); font-family: Helvetica; font-size: 20px; font-style: normal; font-variant-ligatures: normal; font-variant-caps: normal; letter-spacing: normal; orphans: 2; text-align: center; text-indent: 0px; text-transform: none; widows: 2; word-spacing: 0px; -webkit-text-stroke-width: 0px; white-space: normal; background-color: rgb(251, 251, 251); text-decoration-thickness: initial; text-decoration-style: initial; text-decoration-color: initial; float: none; display: inline !important;&quot;&gt;Independant Agent&lt;/span&gt;" style="text;whiteSpace=wrap;html=1;fontStyle=1" parent="WIyWlLk6GJQsqaUBKTNV-1" vertex="1">
          <mxGeometry x="1040.62" y="446" width="197.5" height="50" as="geometry" />
        </mxCell>
        <mxCell id="jvl8iwTHRKWooMft47pN-84" value="&lt;p&gt;&lt;span style=&quot;font-size: 20px;&quot;&gt;Update&lt;/span&gt;&lt;/p&gt;" style="rounded=1;whiteSpace=wrap;html=1;fontSize=12;glass=0;strokeWidth=1;shadow=0;" parent="WIyWlLk6GJQsqaUBKTNV-1" vertex="1">
          <mxGeometry x="1175" y="486" width="103.12" height="40" as="geometry" />
        </mxCell>
        <mxCell id="jvl8iwTHRKWooMft47pN-85" value="&lt;div style=&quot;text-align: center;&quot;&gt;&lt;span style=&quot;background-color: initial; font-size: 20px;&quot;&gt;txt&lt;/span&gt;&lt;/div&gt;" style="text;whiteSpace=wrap;html=1;fontStyle=1" parent="WIyWlLk6GJQsqaUBKTNV-1" vertex="1">
          <mxGeometry x="1278.12" y="524" width="90" height="50" as="geometry" />
        </mxCell>
        <mxCell id="jvl8iwTHRKWooMft47pN-86" value="&lt;p&gt;&lt;span style=&quot;font-size: 20px;&quot;&gt;Requirements&lt;/span&gt;&lt;/p&gt;" style="rounded=1;whiteSpace=wrap;html=1;fontSize=12;glass=0;strokeWidth=1;shadow=0;" parent="WIyWlLk6GJQsqaUBKTNV-1" vertex="1">
          <mxGeometry x="1048.12" y="155" width="240" height="40" as="geometry" />
        </mxCell>
        <mxCell id="jvl8iwTHRKWooMft47pN-92" style="edgeStyle=none;curved=1;rounded=0;orthogonalLoop=1;jettySize=auto;html=1;fontSize=12;startSize=8;endSize=8;exitX=0.5;exitY=1;exitDx=0;exitDy=0;entryX=0.5;entryY=0;entryDx=0;entryDy=0;" parent="WIyWlLk6GJQsqaUBKTNV-1" source="AkG67R32tvtSbbvucYFj-30" target="jvl8iwTHRKWooMft47pN-78" edge="1">
          <mxGeometry relative="1" as="geometry">
            <mxPoint x="1169.37" y="370" as="sourcePoint" />
            <mxPoint x="1169.12" y="380" as="targetPoint" />
          </mxGeometry>
        </mxCell>
        <mxCell id="jvl8iwTHRKWooMft47pN-88" value="&lt;p&gt;&lt;span style=&quot;font-size: 20px;&quot;&gt;User&#39;s Enquiries&lt;/span&gt;&lt;/p&gt;" style="rounded=1;whiteSpace=wrap;html=1;fontSize=12;glass=0;strokeWidth=1;shadow=0;" parent="WIyWlLk6GJQsqaUBKTNV-1" vertex="1">
          <mxGeometry x="1052.5" y="255" width="240" height="40" as="geometry" />
        </mxCell>
        <mxCell id="jvl8iwTHRKWooMft47pN-89" value="&lt;div style=&quot;text-align: center;&quot;&gt;&lt;span style=&quot;background-color: initial; font-size: 20px;&quot;&gt;txt&lt;/span&gt;&lt;/div&gt;" style="text;whiteSpace=wrap;html=1;fontStyle=1" parent="WIyWlLk6GJQsqaUBKTNV-1" vertex="1">
          <mxGeometry x="1289.37" y="340" width="90" height="30" as="geometry" />
        </mxCell>
        <mxCell id="jvl8iwTHRKWooMft47pN-99" value="&lt;div style=&quot;font-size: 24px;&quot;&gt;&lt;span style=&quot;background-color: initial; font-size: 24px;&quot;&gt;Upload&lt;/span&gt;&lt;/div&gt;" style="text;whiteSpace=wrap;html=1;fontStyle=1;align=center;fontSize=24;" parent="WIyWlLk6GJQsqaUBKTNV-1" vertex="1">
          <mxGeometry x="1058.12" y="115" width="220" height="50" as="geometry" />
        </mxCell>
        <mxCell id="jvl8iwTHRKWooMft47pN-108" value="&lt;div style=&quot;&quot;&gt;&lt;span style=&quot;font-size: 20px;&quot;&gt;Validate&lt;/span&gt;&lt;/div&gt;" style="text;whiteSpace=wrap;html=1;fontStyle=1;align=center;verticalAlign=bottom;" parent="WIyWlLk6GJQsqaUBKTNV-1" vertex="1">
          <mxGeometry x="890.62" y="303" width="110" height="35" as="geometry" />
        </mxCell>
        <mxCell id="jvl8iwTHRKWooMft47pN-113" value="&lt;div style=&quot;font-size: 19px;&quot;&gt;&lt;span style=&quot;font-size: 19px;&quot; id=&quot;docs-internal-guid-1821d3b9-7fff-7af8-b4e6-91dbe0856bd1&quot;&gt;&lt;span style=&quot;font-size: 19px; font-family: &amp;quot;Roboto Mono&amp;quot;, monospace; background-color: transparent; font-variant-numeric: normal; font-variant-east-asian: normal; font-variant-alternates: normal; font-variant-position: normal; vertical-align: baseline; white-space-collapse: preserve;&quot;&gt;Streamlit as front end to obtain input and demonstrate outcomes via https://aianalyser.streamlit.app/&lt;/span&gt;&lt;/span&gt;&lt;/div&gt;" style="text;whiteSpace=wrap;html=1;fontStyle=1;fontColor=#000000;align=left;fontSize=19;" parent="WIyWlLk6GJQsqaUBKTNV-1" vertex="1">
          <mxGeometry x="95" y="650" width="1194.37" height="30" as="geometry" />
        </mxCell>
        <mxCell id="jvl8iwTHRKWooMft47pN-114" value="&lt;div style=&quot;font-size: 21px;&quot;&gt;&lt;span style=&quot;font-size: 21px;&quot; id=&quot;docs-internal-guid-1821d3b9-7fff-7af8-b4e6-91dbe0856bd1&quot;&gt;&lt;span style=&quot;font-size: 21px; font-family: &amp;quot;Roboto Mono&amp;quot;, monospace; background-color: transparent; font-variant-numeric: normal; font-variant-east-asian: normal; font-variant-alternates: normal; font-variant-position: normal; vertical-align: baseline; white-space-collapse: preserve;&quot;&gt;data flow&lt;/span&gt;&lt;/span&gt;&lt;/div&gt;" style="text;whiteSpace=wrap;html=1;fontStyle=1;fontColor=#000000;align=center;fontSize=21;" parent="WIyWlLk6GJQsqaUBKTNV-1" vertex="1">
          <mxGeometry x="559.37" y="14" width="120.63" height="30" as="geometry" />
        </mxCell>
        <mxCell id="h-2WsDjEZn-M_ggkaOYJ-0" value="" style="endArrow=classic;html=1;rounded=0;exitX=1;exitY=0.5;exitDx=0;exitDy=0;" parent="WIyWlLk6GJQsqaUBKTNV-1" source="jvl8iwTHRKWooMft47pN-4" target="jvl8iwTHRKWooMft47pN-94" edge="1">
          <mxGeometry width="50" height="50" relative="1" as="geometry">
            <mxPoint x="650" y="570" as="sourcePoint" />
            <mxPoint x="1030" y="760" as="targetPoint" />
          </mxGeometry>
        </mxCell>
        <mxCell id="AkG67R32tvtSbbvucYFj-3" value="&lt;div style=&quot;font-size: 24px;&quot;&gt;Google Cloud Storage (GCS)&lt;/div&gt;" style="text;whiteSpace=wrap;html=1;fontStyle=1;align=left;fontSize=24;" vertex="1" parent="WIyWlLk6GJQsqaUBKTNV-1">
          <mxGeometry x="318.44" y="-190" width="333.13" height="50" as="geometry" />
        </mxCell>
        <mxCell id="AkG67R32tvtSbbvucYFj-7" value="&lt;div style=&quot;font-size: 30px;&quot;&gt;Google Vertex AI&lt;/div&gt;" style="text;whiteSpace=wrap;html=1;fontStyle=1;align=left;fontSize=30;" vertex="1" parent="WIyWlLk6GJQsqaUBKTNV-1">
          <mxGeometry x="632.5" y="574" width="250" height="50" as="geometry" />
        </mxCell>
        <mxCell id="AkG67R32tvtSbbvucYFj-14" value="jpg - dataframe - xls" style="text;whiteSpace=wrap;html=1;fontStyle=1;align=left;fontSize=25;" vertex="1" parent="WIyWlLk6GJQsqaUBKTNV-1">
          <mxGeometry x="120" y="90" width="260" height="50" as="geometry" />
        </mxCell>
        <mxCell id="AkG67R32tvtSbbvucYFj-20" style="edgeStyle=orthogonalEdgeStyle;rounded=0;orthogonalLoop=1;jettySize=auto;html=1;entryX=0.488;entryY=0.999;entryDx=0;entryDy=0;entryPerimeter=0;exitX=1;exitY=0.5;exitDx=0;exitDy=0;" edge="1" parent="WIyWlLk6GJQsqaUBKTNV-1">
          <mxGeometry relative="1" as="geometry">
            <mxPoint x="863" y="20" as="targetPoint" />
            <mxPoint x="853" y="235" as="sourcePoint" />
            <Array as="points">
              <mxPoint x="863" y="247" />
            </Array>
          </mxGeometry>
        </mxCell>
        <mxCell id="AkG67R32tvtSbbvucYFj-21" value="&lt;div style=&quot;font-size: 21px;&quot;&gt;&lt;span style=&quot;font-size: 21px;&quot; id=&quot;docs-internal-guid-1821d3b9-7fff-7af8-b4e6-91dbe0856bd1&quot;&gt;&lt;span style=&quot;font-size: 21px; font-family: &amp;quot;Roboto Mono&amp;quot;, monospace; background-color: transparent; font-variant-numeric: normal; font-variant-east-asian: normal; font-variant-alternates: normal; font-variant-position: normal; vertical-align: baseline; white-space-collapse: preserve;&quot;&gt;data flow&lt;/span&gt;&lt;/span&gt;&lt;/div&gt;" style="text;whiteSpace=wrap;html=1;fontStyle=1;fontColor=#000000;align=center;fontSize=21;" vertex="1" parent="WIyWlLk6GJQsqaUBKTNV-1">
          <mxGeometry x="419.69" y="378" width="120.63" height="30" as="geometry" />
        </mxCell>
        <mxCell id="AkG67R32tvtSbbvucYFj-22" value="&lt;div style=&quot;text-align: center;&quot;&gt;&lt;span style=&quot;background-color: initial; font-size: 20px;&quot;&gt;dataframe&lt;/span&gt;&lt;/div&gt;" style="text;whiteSpace=wrap;html=1;fontStyle=1" vertex="1" parent="WIyWlLk6GJQsqaUBKTNV-1">
          <mxGeometry x="737" y="205" width="90" height="50" as="geometry" />
        </mxCell>
        <mxCell id="AkG67R32tvtSbbvucYFj-23" value="&lt;div style=&quot;text-align: center;&quot;&gt;&lt;span style=&quot;background-color: initial; font-size: 20px;&quot;&gt;xls&lt;/span&gt;&lt;/div&gt;" style="text;whiteSpace=wrap;html=1;fontStyle=1" vertex="1" parent="WIyWlLk6GJQsqaUBKTNV-1">
          <mxGeometry x="290" y="378" width="90" height="50" as="geometry" />
        </mxCell>
        <mxCell id="AkG67R32tvtSbbvucYFj-24" value="&lt;div style=&quot;text-align: center;&quot;&gt;&lt;span style=&quot;font-size: 20px;&quot;&gt;txt&lt;/span&gt;&lt;/div&gt;" style="text;whiteSpace=wrap;html=1;fontStyle=1" vertex="1" parent="WIyWlLk6GJQsqaUBKTNV-1">
          <mxGeometry x="646.75" y="378" width="66.5" height="50" as="geometry" />
        </mxCell>
        <mxCell id="AkG67R32tvtSbbvucYFj-25" style="edgeStyle=none;curved=1;rounded=0;orthogonalLoop=1;jettySize=auto;html=1;fontSize=12;startSize=8;endSize=8;entryX=0.657;entryY=0.04;entryDx=0;entryDy=0;entryPerimeter=0;" edge="1" parent="WIyWlLk6GJQsqaUBKTNV-1" target="AkG67R32tvtSbbvucYFj-14">
          <mxGeometry relative="1" as="geometry">
            <mxPoint x="291" y="-20" as="sourcePoint" />
            <mxPoint x="290" y="87" as="targetPoint" />
          </mxGeometry>
        </mxCell>
        <mxCell id="AkG67R32tvtSbbvucYFj-26" style="edgeStyle=none;curved=1;rounded=0;orthogonalLoop=1;jettySize=auto;html=1;fontSize=12;startSize=8;endSize=8;entryX=0.657;entryY=0.04;entryDx=0;entryDy=0;entryPerimeter=0;" edge="1" parent="WIyWlLk6GJQsqaUBKTNV-1">
          <mxGeometry relative="1" as="geometry">
            <mxPoint x="680" y="-20" as="sourcePoint" />
            <mxPoint x="680" y="90" as="targetPoint" />
          </mxGeometry>
        </mxCell>
        <mxCell id="AkG67R32tvtSbbvucYFj-27" value="&lt;div style=&quot;&quot;&gt;&lt;span style=&quot;background-color: initial; font-size: 20px;&quot;&gt;Window Schedule.jpg&lt;/span&gt;&lt;/div&gt;" style="text;whiteSpace=wrap;html=1;fontStyle=1;align=right;" vertex="1" parent="WIyWlLk6GJQsqaUBKTNV-1">
          <mxGeometry x="178.75" y="-53" width="220" height="50" as="geometry" />
        </mxCell>
        <mxCell id="AkG67R32tvtSbbvucYFj-28" value="&lt;div style=&quot;&quot;&gt;&lt;span style=&quot;background-color: initial; font-size: 20px;&quot;&gt;approveddoc.pdf, scdf chapter 4.pdf&lt;/span&gt;&lt;/div&gt;" style="text;whiteSpace=wrap;html=1;fontStyle=1;align=right;" vertex="1" parent="WIyWlLk6GJQsqaUBKTNV-1">
          <mxGeometry x="500" y="-53" width="370" height="50" as="geometry" />
        </mxCell>
        <mxCell id="AkG67R32tvtSbbvucYFj-29" value="&lt;div style=&quot;font-size: 30px;&quot;&gt;OpenAI&lt;/div&gt;" style="text;whiteSpace=wrap;html=1;fontStyle=1;align=right;fontSize=30;" vertex="1" parent="WIyWlLk6GJQsqaUBKTNV-1">
          <mxGeometry x="1165" y="573" width="170" height="50" as="geometry" />
        </mxCell>
        <mxCell id="AkG67R32tvtSbbvucYFj-31" value="&lt;div style=&quot;font-size: 24px;&quot;&gt;&lt;span style=&quot;background-color: initial; font-size: 24px;&quot;&gt;Validation / Interaction&lt;/span&gt;&lt;/div&gt;" style="text;whiteSpace=wrap;html=1;fontStyle=1;align=center;fontSize=24;" vertex="1" parent="WIyWlLk6GJQsqaUBKTNV-1">
          <mxGeometry x="1040" y="50" width="270" height="50" as="geometry" />
        </mxCell>
        <mxCell id="AkG67R32tvtSbbvucYFj-32" value="&lt;div style=&quot;font-size: 24px;&quot;&gt;&lt;span style=&quot;background-color: initial; font-size: 24px;&quot;&gt;Input&lt;/span&gt;&lt;/div&gt;" style="text;whiteSpace=wrap;html=1;fontStyle=1;align=center;fontSize=24;" vertex="1" parent="WIyWlLk6GJQsqaUBKTNV-1">
          <mxGeometry x="1058.12" y="210" width="220" height="50" as="geometry" />
        </mxCell>
      </root>
    </mxGraphModel>
  </diagram>
</mxfile>
